<svg version="1.1" xmlns="http://www.w3.org/2000/svg" viewBox="0 0 100 100" xml:space="preserve"><style type="text/css">.st0{fill:#8AC588;}</style><g><path class="st0" d="M50.2,84.4c-1.6,0-3.3,0-4.9,0c-3.9,0-6.3-2.4-6.4-6.3c0-2.4,0.1-4.9,0-7.3c-0.1-2,0.9-2.9,2.8-3.1 c6.2-0.5,11.7-2.8,17-5.9c6.7-3.9,9.5-12,6.9-19.1C62.9,35.5,55,31.2,47.1,32.7c-7.1,1.3-13,8.2-13,15.5c0,1.6,0.4,3.2,0.8,4.7 c0.5,1.7,0.1,3-1.6,3.5c-2,0.6-2.9-0.5-3.5-2.3c-4-11.4,4.8-25.1,17.1-26.6c10.4-1.3,19.6,3.6,23.5,12.6c3.9,8.9,1.1,18.7-7.3,25.2 c-1.2,0.9-1.6,1.8-1.6,3.2c0.1,2.9,0,5.7,0,8.6c0,5.3-1.9,7.3-7.3,7.3C52.8,84.4,51.5,84.4,50.2,84.4 M57,80.2v-9.4h-5.5 c0,0,0.1,8,0,9.4H57z M48.3,80.3v-9.4h-5.6v9.4H48.3z"/><path class="st0" d="M50.2,1.3c3.8,0,3.9,0,3,3.7c-0.8,3.3-1.6,6.7-2.5,10c-0.1,0.4-0.4,1.2-0.5,1.1c-0.6-0.1-0.7-0.7-0.8-1.2 c-0.8-3.5-1.7-7-2.6-10.5C46.2,1.6,46.5,1.3,50.2,1.3"/><path class="st0" d="M28.7,25c-0.4-0.2-0.7-0.3-1.1-0.5c-3.6-2.2-7.2-4.4-10.8-6.5c-1.4-0.9-1.4-1.6-0.3-2.8c4.1-4.3,4-4.4,7.1,0.6 c1.7,2.7,3.4,5.3,5,8C28.9,24.1,29.7,24.6,28.7,25"/><path class="st0" d="M84.4,16.5c0,0.7-0.6,1.1-1.2,1.5c-3.6,2.2-7.2,4.3-10.7,6.4c-0.3,0.2-0.7,0.7-1.1,0.2c-0.1-0.2,0-0.7,0.2-1 c2.3-3.7,4.6-7.3,6.9-11c0.3-0.5,0.7-0.8,1.3-0.8C80.6,11.9,84.3,15.4,84.4,16.5"/><path class="st0" d="M95,45.4c0,3.9-0.1,4-4,3.1c-3.4-0.8-6.8-1.6-10.1-2.4c-0.5-0.1-1.3,0.1-1.2-0.7c0-0.5,0.7-0.4,1.2-0.5 c3.4-0.8,6.8-1.6,10.1-2.4C95,41.5,95,41.5,95,45.4"/> <path class="st0" d="M5,45.5c0-3.9,0.1-4,4-3.1c3.4,0.8,6.7,1.6,10.1,2.4c0.5,0.1,1.3-0.1,1.2,0.7c0,0.5-0.7,0.4-1.1,0.5c-3.4,0.8-6.8,1.6-10.1,2.4C5,49.4,5,49.4,5,45.5"/><polygon class="st0" points="50.1,98.7 41.3,88.3 58.8,88.4"/></g></svg>
