<svg version="1.1" xmlns="http://www.w3.org/2000/svg" viewBox="0 0 100 100" xml:space="preserve"><style type="text/css">.st0{fill:#8AC588;}</style><g><path class="st0" d="M18.2,56.3v-8.3h-4.4c-3.3,0-6.1-2.9-6.1-6.4V23c0-3.6,2.7-6.4,6.1-6.4h34.4c3.3,0,6.1,2.9,6.1,6.4v18.6 c0,3.5-2.7,6.4-6.1,6.4v4.5c5.8,0,10.6-4.9,10.6-11V23c0-6-4.8-11-10.6-11H13.7C7.9,12.1,3.2,17,3.2,23v18.6c0,6,4.8,11,10.6,11 h-0.1v8c0,1.2,0.8,2.3,2,2.8c0.3,0.1,0.7,0.2,1,0.2c0.8,0,1.6-0.4,2.2-1l8.4-10h8.4v-4.5H25.1L18.2,56.3z"/><path class="st0" d="M86.3,36.4H62.6V41h23.6c3.3,0,6.1,2.9,6.1,6.4V66c0,3.5-2.7,6.4-6.1,6.4h-6.1v8.3l-7-8.3h-23 c-3.3,0-6.1-2.9-6.1-6.4V47.4c0-3.5,2.7-6.4,6.1-6.4v-4.5c-5.8,0-10.6,4.9-10.6,11V66c0,6,4.8,11,10.6,11h20.9l8.4,10 c0.6,0.6,1.3,1,2.2,1c0.3,0,0.7-0.1,1-0.2c1.2-0.4,2-1.5,2-2.8v-8h1.6c5.8,0,10.6-4.9,10.6-11V47.4C96.8,41.4,92.1,36.4,86.3,36.4z"/><path class="st0" d="M25.5,19.5l-8,21.1h4.7l1.7-4.7h7.9l1.6,4.7h4.8l-7.9-21.1H25.5z M25.1,32.5l2.7-7.7h0.1l2.7,7.7H25.1z"/><path class="st0" d="M59.3,61.5c0,2.3,1.5,3.8,3.9,3.8c2.9-0.1,5.8-1.9,6.7-2.7c0.9-0.8,3.4-3.7,4.6-6c1.4,0.7,2.1,1.8,2.1,3 c0,2.6-2.6,4.2-6.6,4.7l2,2.7c6.4-0.8,8.6-3.5,8.6-7.4c0-3.3-2.1-5.3-4.8-6.2c0.1-0.3,0.1-0.5,0.2-0.8l-3.6-0.6 c0,0.4-0.1,0.4-0.2,0.8c-1.3-0.1-2.8,0.1-3.2,0.2c0-0.7,0-2.4,0-3.1c3-0.1,6-0.4,8.8-0.8l-0.3-3.6c-2.8,0.6-5.6,0.9-8.2,1 c0.1-0.7,0.2-2.7,0.2-2.7l-3.8-0.3c-0.1,1-0.1,2.1-0.1,3.1c-1.7,0-3.7,0-4.8,0l0.2,3.5h0.4c1,0,2.7-0.1,4.1-0.1c0,1,0,3,0.1,4 C61.8,55.4,59.3,58,59.3,61.5z M70.9,55.9c-0.5,1-1.1,2-1.8,2.8c-0.1-0.8-0.2-1.6-0.2-2.5C69.1,56.1,70.2,55.9,70.9,55.9z M65.5,57.3c0.1,1.4,0.3,2.7,0.5,3.9c-0.6,0.3-1.3,0.5-1.8,0.6c-1.2,0.1-1.2-0.7-1.2-1.1C62.9,59.4,63.9,58.2,65.5,57.3z"/></g></svg>
