<svg version="1.1" xmlns="http://www.w3.org/2000/svg" viewBox="0 0 100 100" xml:space="preserve"><style type="text/css">.st0{fill:#8AC588;}</style><g><path class="st0" d="M41.7,6.8c20.1,0,36.4,16.1,36.4,36.1C78.1,63,62,79.3,42,79.3S6,62.3,6,42.2C6,22.2,21.7,6.8,41.7,6.8 M42,2 C19.5,2,1.2,20.2,1.2,42.7c0,22.5,18.2,40.7,40.7,40.7s40.7-18.2,40.7-40.7C82.7,20.2,64.5,2,42,2L42,2z"/> <polygon class="st0" points="98.8,94 95.2,98 68.6,73 72.1,69"/><path class="st0" d="M42.6,28l3.4,6.9l1.6,3.3l3.6,0.5l7.6,1.1L53.2,45l-2.6,2.5l0.6,3.6l1.3,7.5l-6.8-3.5l-3.2-1.7l-3.2,1.7 l-6.8,3.6l1.3-7.5l0.6-3.6L31.9,45l-5.5-5.3l7.6-1.1l3.6-0.5l1.6-3.3L42.6,28 M42.5,19L35,34.2l-16.8,2.4l12.2,11.9l-2.9,16.8 l15.1-7.9l15.1,7.9l-2.9-16.8l12.2-11.9l-16.9-2.4L42.5,19L42.5,19z"/></g></svg>
