<?xml version="1.0" encoding="utf-8"?><svg width="316" height="288" viewBox="0 0 316 288" xmlns="http://www.w3.org/2000/svg" xmlns:xlink="http://www.w3.org/1999/xlink"><svg id="collage" viewBox="-5 -5 70 70" width="70" height="70" xmlns="http://www.w3.org/2000/svg"><style>.ast0{fill:none}.ast1{fill:#d0e8f4}.ast2{fill:#999}</style><path class="ast0" d="M19.3 20.7l.1-7.3-5.5-1.8v14.2c1-1.3 2.2-2.4 3.5-3.5.2-.3.3-.5.6-.7.4-.4.8-.7 1.3-.9zM30.2 14.1l12.3-4-12.4-2.7h-.3l-12.4 2.7 12.3 4c.2.1.4.1.5 0z"/><path class="ast1" d="M22 38.7v-2.5c-1.3-1.9-2.1-4-2.4-6.2a7.41 7.41 0 0 1-2.7-5.7c0-.7.2-1.4.6-1.9-1.3 1-2.5 2.2-3.5 3.5v2.3c0 .7-.6 1.3-1.3 1.3-.3 0-.6-.1-.9-.3-1.5 2.8-2.3 6.1-2.3 9.5 0 2.1.3 4.1.9 5.9.3-.2.7-.4 1.1-.6L22 38.7zM40.5 29.9c-.3 2.3-1.2 4.5-2.5 6.4v2.4l10.6 5.2c.4.2.7.4 1.1.6.6-1.9.9-3.9.9-5.9 0-6.7-3.2-12.6-8.1-16.4.4.6.7 1.3.7 2.1-.1 2.1-1.1 4.2-2.7 5.6z"/><path class="ast2" d="M49.7 44.5c-.3-.2-.7-.4-1.1-.6L38 38.7v-2.4c1.4-1.9 2.2-4.1 2.5-6.4 1.6-1.4 2.6-3.5 2.6-5.6 0-.8-.2-1.5-.7-2.1-.1-.2-.3-.4-.4-.5-.4-.4-.8-.7-1.3-.9v-7.4l7.1-2.3c.7-.2 1-.9.8-1.6-.1-.4-.5-.8-.9-.9l-17-3.7c-.5-.1-.9-.1-1.4 0l-17 3.7c-.7.1-1.1.8-1 1.5V28.2c0 .4.2.7.4 1 .2.2.5.3.9.3.7 0 1.3-.6 1.3-1.3V11.6l5.5 1.8-.1 7.3c-.5.2-1 .5-1.4.8-.2.2-.4.5-.6.7-.4.6-.6 1.2-.6 1.9 0 2.2 1 4.3 2.7 5.7.3 2.2 1.1 4.4 2.4 6.2v2.5l-10.6 5.2c-.4.2-.7.4-1.1.6C7.7 46.1 6 49 6 52.2v1.7c0 .7.6 1.3 1.3 1.3h45.4c.7 0 1.3-.6 1.3-1.3v-1.7c0-3.2-1.7-6.1-4.3-7.7zM17.5 10.1l12.4-2.7h.3l12.4 2.7-12.3 4h-.4l-12.4-4zm20.6 4.1v3.6c-.7.4-1.4.8-2.1 1.1-3.9 1.7-8.2 1.7-12.1 0-.7-.3-1.4-.6-2-1.1v-3.6l7.1 2.3c.7.2 1.4.2 2 0l7.1-2.3zm-16.6 14c-1.3-.9-2.1-2.4-2.1-3.9 0-.3.1-.6.3-.8.2-.2.5-.3.8-.3.7 0 1.3-.5 1.3-1.2v-1.1c2.5 1.3 5.3 1.9 8.1 2 2.8 0 5.6-.7 8.1-2V22c0 .7.6 1.3 1.3 1.3.3 0 .6.1.8.3.2.2.3.5.3.8 0 1.5-.7 3-2 3.9-.3.2-.5.5-.5.9-.2 2.1-1 4.1-2.2 5.8-.3.4-.4.8-.4 1.3v2.9c-2.3 3-6.7 3.6-9.7 1.2-.4-.3-.9-.8-1.2-1.2v-3c0-.5-.2-.9-.4-1.3-1.2-1.7-1.9-3.6-2.1-5.7.1-.4-.1-.8-.4-1zm29.9 24.4H8.6v-.4c0-2.1 1-4 2.7-5.2.4-.3.8-.5 1.2-.7h.1L23 41.2c1.8 2 4.4 3.2 7.1 3.2H30c2.7 0 5.3-1.2 7.1-3.2l10.4 5.1h.1c.4.2.8.4 1.2.7 1.6 1.2 2.7 3.1 2.7 5.2l-.1.4z"/></svg><svg id="reader" viewBox="-5 -5 70 70" width="70" height="70" x="70" y="70" xmlns="http://www.w3.org/2000/svg"><style>.bst0{fill:none}.bst1{fill:#d0e8f4}.bst2{fill:#999}</style><path class="bst0" d="M8.1 21.1c-.8.1-1.3.9-1.1 1.6l1.4 7.8c.1.7.7 1.2 1.4 1.2h.2l2.1-.4-1.8-10.6-2.2.4z"/><path class="bst1" d="M43.3 19.7c.9.9 1.4 2.1 1.2 3.5L43 31c-.3 1.8-1.9 3.2-3.8 3.2h-.7l-2.1-.3c-1.8 3.7-5.7 10.3-12 10.3-1.7 0-4.7-.6-7.8-3.8.2 1.4.5 2.8 1 4.1l1.4-.6H20l.1.1.1.1.1.1.1.1s.1 0 .1.1V44.7c.6 2.1 2.3 2.8 3.7 2.8 1.4 0 3.1-.7 3.7-2.8v-.1c.2-.6 1-.9 1.6-.7l9.1 3.7c.6.2.9 1 .7 1.6-.2.5-.7.8-1.1.8-.1 0-.3 0-.5-.1l-7.9-3.2c-1.1 2.1-3.2 3.3-5.6 3.3s-4.5-1.3-5.6-3.3l-.3.1C21.9 53 28.4 57.3 36 57.3c10.8 0 19.5-8.7 19.5-19.5 0-8.2-5.1-15.2-12.2-18.1z"/><path class="bst2" d="M38.9 47.5l-9.1-3.7c-.6-.2-1.4 0-1.6.7v.1c-.6 2.1-2.3 2.8-3.7 2.8-1.4 0-3.1-.7-3.7-2.8v-.2-.1s0-.1-.1-.1c0 0 0-.1-.1-.1l-.2-.1-.1-.1s-.1 0-.1-.1h-.1-.1-.1-.4-.1-.2l-1.4.6-7.8 3.1c-.6.2-.9 1-.7 1.6.2.5.7.8 1.2.8.2 0 .3 0 .5-.1l7.6-3.1.3-.1c1.1 2.1 3.2 3.3 5.6 3.3s4.5-1.3 5.6-3.3l7.9 3.2c.2.1.3.1.5.1.5 0 .9-.3 1.1-.8.2-.6 0-1.3-.7-1.6z"/><path class="bst2" d="M43.3 19.7c-.5-.4-1.1-.8-1.7-1-.5-9-8-16-17-16-9.1 0-16.5 7-17 16-2 .5-3.3 2.4-2.9 4.4L6 31c.3 1.8 1.9 3.2 3.8 3.2h.7l3.3-.6c.7-.1 1.1-.7 1-1.4l-1.7-9.5c.8-1.4 1.6-2.2 2.5-2.5 1.7-.5 4.1.7 6.9 2.1.3.2.7.4 1.1.6C26.5 24.4 30 26 34 26c.5 0 1 0 1.5-.1l-1 6.4c-3.8 8.4-8.2 9.3-10 9.3-1.6 0-4.8-.7-7.9-5.4-.2-.2-.3-.5-.5-.8-.4-.6-1.1-.8-1.7-.4-.6.4-.8 1.1-.4 1.7.9 1.5 1.8 2.6 2.7 3.6 3.1 3.2 6.1 3.8 7.8 3.8 6.3 0 10.3-6.6 12-10.3l2.1.3h.7c1.9 0 3.5-1.4 3.8-3.2l1.4-7.8c.2-1.2-.3-2.5-1.2-3.4zM10 31.8h-.2c-.7 0-1.3-.5-1.4-1.2L7 22.8c-.1-.8.4-1.5 1.1-1.6l2.1-.4L12 31.4l-2 .4zm23.4-8.5c-3.7.5-5.4-.6-7.8-2.1-.6-.4-1.3-.8-2.1-1.2-3.2-1.7-6-3.2-8.7-2.3-.9.3-1.6.8-2.3 1.5V19c0-.3-.2-.6-.5-.8-.3-.2-.7-.2-1-.2l-1 .2c.8-7.4 7-13.1 14.5-13.1S38.2 10.8 39 18.2l-.7-.1c-1.7-7.3-6.7-11.5-13.9-11.5-6.3 0-10.9 3.2-13.1 9.1-.2.7.1 1.4.7 1.6.7.2 1.4-.1 1.6-.7 1.8-4.9 5.5-7.6 10.7-7.5 6.2.1 8.1 5.4 8.7 9.5.6 2.6.4 4.7.4 4.7zm8.6-.5l-1.4 7.8c-.1.7-.7 1.2-1.4 1.2H39l-1.9-.3 1.7-10.7 2.1.4c.7 0 1.2.8 1.1 1.6z"/></svg><svg id="school" viewBox="-5 -5 105.3 78" width="105.3" height="78" x="140" y="140" xmlns="http://www.w3.org/2000/svg"><style>.cst0{fill:none}.cst1{fill:#d0e8f4}.cst2{fill:#999}</style><path class="cst0" d="M2.3 65.7h18.1V45.4H2.3v20.3zM16 48.3v12H6.7v-12H16zM2.3 40h18.1v3.1H2.3z"/><path class="cst0" d="M9 55.5h4.7V58H9zM33.8 37.7c0-1-.8-1.9-1.9-1.9-1 0-1.9.8-1.9 1.9h3.8zM35.2 50.5h6.3v15.1h-6.3zM30.1 40h3.7v3.5h-3.7zM35.2 2.3h6.3v3h-6.3zM9 50.6h4.7v2.5H9zM78.4 58.1h6.4v1.7h-6.4zM78.4 55.8h6.4v-14h-1.1c-1.1 3.4-2.9 6.4-5.3 8.9v5.1z"/><path class="cst1" d="M84.4 39.4c.3-1.6.5-3.2.5-4.9 0-11.7-8.6-21.5-19.8-23.2v46.4c1.5-.2 3-.6 4.5-1.2l2.2-17.1h12.6zM61.4 11H60h2.8-1.4z"/><path class="cst1" d="M78.4 50.6c2.4-2.5 4.2-5.5 5.3-8.9h-5.3v8.9zM73.8 41.8l-1.7 13.7c1.4-.7 2.8-1.6 4.1-2.6v-11h-2.4z"/><path class="cst2" d="M22.7 18.8h-2.3v18.9h2.3V18.8zM62.7 18.8V65.7H52.5v2.2H32.9v-2.2H22.7V68H65V18.8h-2.3zM36.2 37.7c0-2.3-1.9-4.2-4.2-4.2s-4.2 1.9-4.2 4.2v8.1h8.4v-8.1zM35 40h-1.2v3.5h-3.7V40h-1.2v-2.3h1.2c0-1 .8-1.9 1.9-1.9 1 0 1.9.8 1.9 1.9H35V40z"/><path class="cst2" d="M42.7 33.5c-2.3 0-4.2 1.9-4.2 4.2v8.1h8.4v-8.1c0-2.4-1.9-4.2-4.2-4.2zm3.1 6.5h-1.2v3.5h-3.7V40h-1.2v-2.3h1.2c0-1 .8-1.9 1.9-1.9s1.9.8 1.9 1.9h1.2V40zM57.7 37.7c0-2.3-1.9-4.2-4.2-4.2s-4.2 1.9-4.2 4.2v8.1h8.4v-8.1zM56.5 40h-1.2v3.5h-3.7V40h-1.2v-2.3h1.2c0-1 .8-1.9 1.9-1.9s1.9.8 1.9 1.9h1.2V40z"/><path d="M44.2 50.5l-.3-.3v.3h.3z"/><path class="cst2" d="M43.9 66.8h-2.3v-1.1H33v2.2h19.6v-2.2h-8.7v1.1zM41.6 50.5h2.3v15.1h-2.3z"/><path d="M41.6 65.6h2.3v.1h-2.3z"/><path class="cst2" d="M42.3 48.2H33v17.5h8.6v-.1h-6.3V50.5h8.6v-.3l.3.3h6.1V65.6H44v.1h8.7v-9.4-8.1H42.3zM41.6 65.7h2.3v1.1h-2.3zM41.6 7.6h2.3V11h-2.3zM35.2 5.3v-3h6.4V1.2h2.3V0h-11v7.6h8.7V5.3z"/><path class="cst2" d="M43.9 1.2h-2.3V7.6h2.3zM42.7 21.2c-.3 0-.5 0-.8.1-2.3.4-4 2.3-4 4.7 0 .9.3 1.7.7 2.4.8 1.4 2.3 2.3 4 2.3 2.6 0 4.7-2.1 4.7-4.7s-2-4.8-4.6-4.8zm0 7.1c-1.3 0-2.4-1.1-2.4-2.4 0-1.3 1.1-2.4 2.4-2.4s2.4 1.1 2.4 2.4c0 1.3-1 2.4-2.4 2.4zM62.8 11H43.9v1.3h-2.3V11H20.4V18.7H65V11h-2.2zm-.1 5.5h-40v-3h40v3z"/><path class="cst2" d="M41.6 11v1.3h2.3V11zM2.3 65.7V45.4H0V68h20.4v-2.3zM22.7 45.4h-2.3V68h2.3v-2.3-20.3z"/><path class="cst2" d="M16 60.3v-12H6.7v12H16zm-8.1-7.2H9v-2.5h4.7v2.5h1.2v2.3h-1.2V58H9v-2.5H7.9v-2.4z"/><path class="cst2" d="M9 53.1h4.7v2.3H9zM13.7 53.1h1.2v2.3h-1.2z"/><path class="cst2" d="M7.9 53.1h1.2v2.3H7.9zM2.3 43.1h18.1v2.3H2.3z"/><path class="cst2" d="M2.3 43.1V40h18.1v-2.3H0v7.7h2.3z"/><path class="cst2" d="M20.4 43.1v2.3h2.3v-7.7h-2.3v5.4zM91.6 39.4H71.7l-2.2 17.2L68 68h2.5l1.6-12.6 1.7-13.6h2.3v-1.2h2.3v1.2h6.5v-1.2h2.3v1.2h2.3L92.9 68h2.4z"/><path class="cst2" d="M84.9 55.8h-6.4V58h-2.3v4.1h11.1V58H85v-2.2zm0 4h-6.4v-1.7h6.4v1.7zM78.4 50.6c-.7.8-1.5 1.5-2.3 2.2v3h2.3v-5.2z"/><path class="cst2" d="M78.4 50.6v-8.9h-2.3v11c.8-.6 1.6-1.3 2.3-2.1z"/><path class="cst2" d="M76.1 40.6h2.3v1.2h-2.3zM76.1 55.8h2.3V58h-2.3zM84.9 55.8h2.3V58 41.8h-2.3v14z"/><path class="cst2" d="M84.9 40.6h2.3v1.2h-2.3zM84.9 55.8V58h2.3v-2.2h-2.3zM30.1 37.7h3.7V40h-3.7zM28.9 37.7h1.2V40h-1.2z"/><path class="cst2" d="M33.8 37.7H35V40h-1.2zM40.9 37.7h3.7V40h-3.7zM44.6 37.7h1.2V40h-1.2z"/><path class="cst2" d="M39.7 37.7h1.2V40h-1.2zM51.6 37.7h3.7V40h-3.7zM55.4 37.7h1.2V40h-1.2z"/><path class="cst2" d="M50.5 37.7h1.2V40h-1.2z"/></svg><svg id="teacher" viewBox="-5 -5 70 70" width="70" height="70" x="246" y="218" xmlns="http://www.w3.org/2000/svg"><style>.dst0{fill:#d0e8f4}.dst1{fill:#999}</style><circle class="dst0" cx="40.5" cy="22.2" r="19.5"/><path class="dst1" d="M4.3 14.1c0 3.3 2.7 6 6 6s6-2.7 6-6-2.7-6-6-6-6 2.7-6 6zm9.5 0c0 1.9-1.6 3.5-3.5 3.5S6.8 16 6.8 14.1s1.6-3.5 3.5-3.5 3.5 1.6 3.5 3.5zM1.3 36.4c.2 1.6 1.1 2.9 2.5 3.7l2 14.6c.2 1.5 1.4 2.6 2.9 2.6H12c1.5 0 2.7-1.1 2.9-2.6l1-8.9 2-14.9 2.2 1.8c1.3 1.1 3.1 1.1 4.4.1l6.6-5.2c1.4-1.1 1.8-3.1.9-4.7-1-1.7-3.2-2.2-4.8-1.2-.1.1-.2.2-.3.2l-4.4 3.5-4.5-3.7c-.6-.5-1.4-.8-2.2-.8h-2c-.5 0-.9.2-1.2.5l-2 2.5-2-2.5c-.3-.4-.7-.6-1.2-.6H5.5c-3.1 0-5.5 2.5-5.5 5.5v.6l1.3 9.5zm2-11.9c.6-.6 1.4-1 2.2-1h1.1l2.3 2.9c.6.8 1.7.9 2.5.3l.3-.3 2.3-2.9h1.6c.2 0 .4.1.6.2l5.3 4.4c.5.4 1.1.4 1.6 0l5.2-4.1c.2-.1.4-.2.6-.2.3 0 .7.2.8.5.2.5.1 1-.3 1.3l-6.6 5.2c-.4.3-.9.3-1.2 0l-4-3.3c-.5-.4-1.3-.4-1.8.2-.2.2-.2.4-.3.6l-2.3 17.2-1 9c0 .2-.2.3-.4.3H8.6c-.2 0-.4-.2-.4-.4L6.1 39.1c-.1-.5-.4-.9-.8-1-.8-.3-1.4-1.1-1.5-2l-1.3-9.3c-.1-.8.2-1.7.8-2.3z"/><path class="dst1" d="M19.3 9.7v9.2c0 .7.6 1.3 1.3 1.3.7 0 1.3-.6 1.3-1.3V11h25.6v25.1H20.6c-.7 0-1.3.6-1.3 1.3 0 .7.6 1.3 1.3 1.3h12.8v8.5h-8c-.7 0-1.3.4-1.6 1L21 53.5c-.3.6-.1 1.4.5 1.7.6.3 1.4.1 1.7-.5l2.6-5h17.8l2.6 5c.3.6 1.1.9 1.7.5.6-.3.9-1.1.5-1.7l-2.8-5.3c-.3-.6-1-1-1.6-1h-8v-8.5h12.8c.7 0 1.3-.6 1.3-1.3V9.7c0-.7-.6-1.3-1.3-1.3H20.6c-.7 0-1.3.6-1.3 1.3z"/></svg></svg>