<svg version="1.1" id="Lager_1" xmlns="http://www.w3.org/2000/svg" xmlns:xlink="http://www.w3.org/1999/xlink" x="0px" y="0px" viewBox="0 0 4280 380" style="enable-background:new 0 0 4280 380;" xml:space="preserve">
<style type="text/css">
	.st0{fill:url(#SVGID_1_);}
	.st1{fill:url(#SVGID_2_);}
	.st2{fill:none;stroke:#ECF0F0;stroke-width:1.5;}
</style>
<title>bg</title>
<desc>Created with Sketch.</desc>
<g id="_x2D_----Uptime">
	<g id="Uptime-monitoring" transform="translate(0.000000, -5672.000000)">
		<g id="bg" transform="translate(-684.000000, 5474.000000)">
			<g>
				<linearGradient id="SVGID_1_" gradientUnits="userSpaceOnUse" x1="2824" y1="311.9328" x2="2824" y2="396.0023">
					<stop offset="0" style="stop-color:#F1F3F4;stop-opacity:0.4461"></stop>
					<stop offset="1" style="stop-color:#FFFFFF;stop-opacity:0.6"></stop>
				</linearGradient>
				<path class="st0" d="M4964,199.4c0,0-210.3,64.9-366.2,63.3c-31.7-0.3-60.4-1.9-86.5-4.5c0,0-677.3-95.5-869.8-46
					c-192.5,49.4-331.5,121.9-628.8,118c-319.4-4.2-362-25.3-595-81.1s-350.4,60.2-599.9,57.7c-31.7-0.3-60.4-1.9-86.5-4.5
					c0,0-453.5-58.7-599.3-60.6c-224.2-2.9-326,29.4-448,29.6v170.4c26.8-2.3,31-3.7,59.5-1.9c210,13.5,337,90.4,460.9,100.2
					c123.9,9.8,420.7-40.1,529.1-37.7s172.8,36.3,309.9,37.7c249.6,2.6,401.3-113.7,611.3-100.2c210,13.5,337,90.4,460.9,100.2
					c123.9,9.8,202.3-29.1,302.8-28.8c99.3,0.3,396.8-61.3,494.7-73.5c256-32,451.5,45.6,560,48s213.3,8.9,350.4,10.3
					c62.4,0.6,140.6-16.5,140.6-16.5V199.4z"></path>
			</g>
			<linearGradient id="SVGID_2_" gradientUnits="userSpaceOnUse" x1="83512.6719" y1="-84372.1875" x2="5192.4463" y2="-2073.9912">
				<stop offset="0" style="stop-color:#E8ECED"></stop>
				<stop offset="1" style="stop-color:#F2F5F5"></stop>
			</linearGradient>
			<path class="st1" d="M4964,434.7c0,0-140,30.3-217.1,25.3c-210-13.5-337-90.4-460.9-100.2c-123.9-9.8-202.3,29.1-302.8,28.8
				c-8.2,0-16-0.4-23.5-1.1c-83.5-7.8-239.8-68.8-354.8-61.3c-50.7,3.3-102.3,23.5-154.3,49.3c-257.8,127.8-369.9-9.2-546.6-29.4
				S2668,377,2463.3,402.9s-461.6-86.2-806.4-86.2c-249.6,0-401.3,113.7-611.3,100.2c-156.2-10.1-264.4-55.2-361.6-81.7V484
				c35.3,11.9,72.9,22.2,112.2,26.7c176.8,20.2,236.1-31.1,440.8-56.9s561.6,63.7,593.2,68.4c43.2,7,93.6,12.9,150.6,15.9
				c20.1,1,41,1.7,62.6,1.9c249.6,2.6,401.3-113.7,611.3-100.2c210,13.5,337,90.4,460.9,100.2c123.9,9.8,202.3-29.1,302.8-28.8
				c8.2,0,16,0.4,23.5,1.1c83.5,7.8,233.2,79.4,354.8,61.3c50.2-7.5,102.3-23.5,154.3-49.3c257.8-127.8,369.9,9.2,546.6,29.4
				c176.8,20.2,236.1-31.1,440.8-56.9c8.8-1.1,25.8-2.6,25.8-2.6V434.7z"></path>
			<g id="graph" transform="translate(420.000000, 210.000000)">
				<path id="path-2_2_" class="st2" d="M264,107.9c5.5,1.1,12.3,2.4,17.8,3.8c214,54.8,360.4,54.8,496.1,54.8
					c177.1,0,187.5,58.8,369.3,41.5s206.8-70.3,356.9-68.3s188.9-53.8,370.7-71.1S2067,110,2244.2,110c135.7,0,282.1,0,496.1,54.8
					s445.4-117.3,610-135.7c327.7-36.7,455.6,206.1,455.6,206.1"></path>
				<path id="path-2-copy_2_" class="st2" d="M264,35c186.1-19,318.7,113.8,495,113.8s212-32.3,358.6-45.5
					c183.7-16.5,382.9,0,382.9,0s199.3,16.4,383-0.2C2030,89.9,2065.7,57.6,2242,57.6s313.1,132.8,499.2,113.8
					S2987.7,60.5,3174.3,35s318.7,113.8,495,113.8c176.4,0,212-32.3,358.6-45.5c183.7-16.5,382.9,0,382.9,0s60.4,4.1,133.2,6.1"></path>
			</g>
		</g>
	</g>
</g>
</svg>